<?xml version="1.0" encoding="utf-8"?>
<svg viewBox="192.867 132.796 93.5 90" width="93.5" height="90" xmlns="http://www.w3.org/2000/svg">
  <g data-v-423bf9ae="" id="3401153a-df16-4b9f-91b7-95d1261d9945" transform="matrix(1.634047, 0, 0, 1.634047, 168.343814, 102.106493)" stroke="none" fill="#9BD92B">
    <path d="M54.34 42.849l1.107-.922 1.104-.754c.355-.237.718-.419 1.05-.616.666-.393 1.306-.618 1.813-.879l1.686-.625-.473.001c-.309.012-.771-.003-1.355.045-.568.107-1.305.138-2.09.39-.395.12-.83.224-1.27.383l-1.359.584-1.414.784c-.465.307-.925.658-1.41 1.008-.443.391-.923.777-1.375 1.208-.432.446-.897.894-1.298 1.397-.413.497-.833 1.007-1.198 1.558-.395.535-.753 1.1-1.087 1.684-.7 1.151-1.273 2.386-1.816 3.626-.476 1.201-.92 2.41-1.267 3.625.042-1.092.09-2.2.057-3.362l-.099-2.598c-.029-.871-.228-1.737-.339-2.607l-.217-1.3-.348-1.274c-.258-.839-.409-1.706-.768-2.504-.321-.808-.619-1.619-.996-2.382l-1.201-2.214a61.644 61.644 0 0 0-1.367-2.009c-.474-.635-1.005-1.204-1.484-1.781a23.948 23.948 0 0 0-3.082-2.876 21.68 21.68 0 0 0-2.921-1.986 12.786 12.786 0 0 0-1.289-.697 16.515 16.515 0 0 0-1.126-.52c-.681-.307-1.245-.479-1.622-.606-.382-.119-.588-.165-.588-.165s.738.426 1.918 1.288c.3.207.617.457.958.734.344.271.716.56 1.09.899.382.327.788.672 1.181 1.077.396.398.845.776 1.245 1.243.846.884 1.675 1.914 2.507 3.019.383.578.814 1.143 1.183 1.765.345.639.736 1.263 1.104 1.913l.957 2.066c.291.712.513 1.461.801 2.188.312.72.424 1.516.645 2.276l.293 1.155.169 1.188c.102.793.303 1.571.333 2.372l.151 2.387.165 4.826c.104 3.147.266 6.085.459 8.604.176 2.518.395 4.616.563 6.085.167 1.469.298 2.309.298 2.309s.131-.84.298-2.309l.085-.765c.232-1.118.569-2.681.986-4.535l.725-3.032c.262-1.07.583-2.185.9-3.335.66-2.293 1.448-4.697 2.408-7.008a39.511 39.511 0 0 1 1.584-3.353c.565-1.081 1.193-2.094 1.851-3.037s1.361-1.797 2.073-2.576l1.112-1.06z"/>
    <path d="M71.227 32.95l-.021-.006c-1.065-.321-2.145-.599-3.217-.895-.539-.137-1.104-.202-1.655-.306l-1.661-.281-1.707-.067c-.568-.016-1.131-.063-1.708.015l-1.714.152c-.57.079-1.133.258-1.693.386-.565.109-1.105.338-1.643.559l-.805.326c-.262.12-.51.279-.76.427-.498.299-.998.584-1.432.974-.453.358-.898.717-1.275 1.151l-.572.633-.496.689c-.346.444-.602.95-.869 1.435-.228.511-.464 1.009-.625 1.537a8.288 8.288 0 0 0-.363 1.595c.238-.488.48-.959.786-1.396.27-.453.604-.863.921-1.272.365-.377.66-.797 1.059-1.127l.559-.52.611-.45c.381-.327.819-.573 1.252-.816.413-.274.885-.445 1.34-.63.232-.086.445-.205.68-.279l.714-.194c.472-.134.937-.278 1.438-.312.492-.056.974-.141 1.464-.178l1.49-.027c.492-.039.996.044 1.495.093l1.495.152 1.496.291c.498.106 1 .171 1.493.309.604.177 1.205.359 1.808.537-.007.034-.012.069-.02.102-.07.425-.197.845-.307 1.267-.156.406-.264.836-.47 1.223l-.269.6c-.099.195-.217.38-.324.571-.111.188-.212.386-.333.569l-.396.528c-.135.174-.256.36-.401.527l-.464.478-.463.48-.515.434c-.355.276-.67.614-1.076.832l-1.166.74-1.264.609c-.211.102-.42.215-.637.31l-.674.234c-.449.16-.904.308-1.357.482-.459.146-.936.243-1.406.369l-1.428.36c-.969.159-1.946.328-2.938.533a65.09 65.09 0 0 0 3.01.267c.506.015 1.011-.025 1.52-.045.508-.03 1.023-.033 1.533-.088.508-.074 1.013-.177 1.523-.267l.767-.14c.252-.064.499-.149.751-.225.5-.154 1.006-.306 1.504-.485l1.44-.694c.497-.207.922-.552 1.382-.837.225-.152.459-.294.676-.459l.609-.548.609-.554c.193-.194.365-.412.547-.618l.539-.63c.167-.219.312-.454.471-.683.323-.451.602-.931.838-1.434.271-.486.438-1.018.648-1.531.163-.531.34-1.06.436-1.613.12-.563.188-1.069.219-1.759a1.41 1.41 0 0 0-.999-1.41zM30.525 36.803c-.495-.235-1.018-.402-1.485-.691l-1.425-.788c-.488-.235-.925-.553-1.37-.853-.437-.312-.903-.577-1.312-.919l-1.228-1.01c-.414-.328-.754-.734-1.133-1.094-.387-.355-.71-.766-1.034-1.172a11.643 11.643 0 0 1-.93-1.242c-.298-.421-.586-.847-.819-1.307l-.374-.671-.312-.701c-.226-.459-.375-.946-.548-1.423-.137-.484-.31-.965-.402-1.452a6.337 6.337 0 0 1-.065-.294l.907-.287 2.046-.527a69.608 69.608 0 0 1 2.052-.413c.685-.069 1.374-.214 2.056-.227l1.025-.051c.34-.004.676.021 1.015.029.681-.003 1.338.107 2.004.188l.977.202c.323.075.631.193.949.286.323.082.614.236.92.36.311.117.6.273.886.438.296.147.586.308.855.502.277.182.56.359.811.58.529.407 1.019.875 1.473 1.381a16.087 16.087 0 0 1 2.354 3.42c.326.625.624 1.274.894 1.938.276.662.504 1.347.722 2.038.427 1.387.778 2.814.993 4.279.148-1.479.091-2.979-.082-4.474a24.138 24.138 0 0 0-.406-2.229 16.07 16.07 0 0 0-.647-2.196 16.896 16.896 0 0 0-.932-2.124 13.052 13.052 0 0 0-1.247-2 13.25 13.25 0 0 0-1.592-1.788c-.281-.29-.599-.539-.916-.791a8.045 8.045 0 0 0-.989-.708 7.8 7.8 0 0 0-1.059-.602c-.366-.175-.723-.379-1.108-.506-.38-.138-.757-.298-1.144-.413l-1.17-.311c-.392-.096-.789-.141-1.185-.212a7.382 7.382 0 0 0-1.189-.131c-.396-.019-.795-.053-1.19-.056l-1.181.035c-.792.006-1.556.146-2.336.216a70 70 0 0 0-2.284.417c-.742.197-1.487.392-2.221.607l-2.167.73-.038.012c-.59.199-.989.781-.931 1.428.067.744.17 1.299.325 1.908.135.601.327 1.176.537 1.744.233.559.448 1.124.74 1.65l.413.802.478.762c.303.518.662.995 1.032 1.463.185.234.358.477.551.702l.621.641c.41.429.82.854 1.288 1.216.46.367.884.779 1.373 1.103l1.459.965c.49.312 1.027.541 1.536.812.515.261 1.021.535 1.566.72.533.211 1.076.397 1.609.595.527.218 1.097.308 1.64.465l1.646.404c1.116.18 2.236.311 3.341.447a157.136 157.136 0 0 0-3.135-1.145l-1.508-.677z"/>
  </g>
</svg>